<?xml version="1.0" standalone="no"?>
<!DOCTYPE svg PUBLIC "-//W3C//DTD SVG 20010904//EN"
 "http://www.w3.org/TR/2001/REC-SVG-20010904/DTD/svg10.dtd">
<svg version="1.0" xmlns="http://www.w3.org/2000/svg"
 width="1280.000000pt" height="1600.000000pt" viewBox="0 0 1280.000000 1600.000000"
 preserveAspectRatio="xMidYMid meet">

<g transform="translate(0.000000,1600.000000) scale(0.100000,-0.100000)"
fill="#000000" stroke="none">
<path d="M7705 13013 c-17 -94 -93 -204 -129 -190 -27 10 -18 -6 23 -45 41
-39 63 -94 76 -195 11 -81 25 -63 23 30 -2 109 18 157 65 158 17 0 41 4 52 8
17 7 15 11 -22 34 -23 15 -47 35 -53 46 -5 11 -10 58 -10 105 0 89 -13 114
-25 49z m29 -185 c17 -26 17 -27 -4 -38 -11 -6 -28 -29 -36 -51 l-16 -39 -33
52 -32 53 27 30 c15 17 36 45 46 63 l19 33 5 -38 c3 -21 14 -50 24 -65z"/>
<path d="M4997 12270 c-5 -56 -12 -79 -37 -115 -17 -25 -42 -48 -55 -51 -30
-7 -23 -24 10 -24 47 0 77 -64 87 -184 2 -16 8 -31 14 -33 8 -3 13 30 16 98 4
89 8 105 27 120 11 9 29 15 40 12 36 -9 32 16 -6 34 -51 24 -73 70 -73 151 0
84 -16 79 -23 -8z m23 -112 c0 -6 8 -20 18 -31 12 -14 14 -21 5 -24 -7 -3 -18
-23 -24 -46 l-11 -41 -12 29 c-7 17 -20 36 -29 43 -15 13 -14 17 10 53 23 36
43 43 43 17z"/>
<path d="M6255 12241 c-11 -5 -38 -28 -58 -52 -48 -56 -50 -58 -80 -105 -24
-39 -145 -189 -195 -243 -13 -14 -36 -46 -50 -71 -31 -53 -91 -136 -145 -201
-21 -25 -66 -96 -101 -159 l-63 -114 14 -41 c7 -22 33 -78 58 -125 24 -47 79
-155 121 -240 70 -139 107 -205 193 -347 14 -23 41 -66 58 -95 31 -51 36 -55
100 -72 76 -20 345 -73 443 -86 36 -5 121 -23 190 -39 239 -57 266 -59 340
-28 46 20 61 38 165 196 48 74 113 168 144 210 78 106 154 222 250 385 73 123
83 146 88 201 5 58 3 69 -32 141 -20 44 -45 99 -55 124 -32 80 -132 283 -175
355 -23 39 -53 90 -67 115 -57 106 -67 117 -127 144 -68 30 -217 60 -411 81
-74 9 -142 17 -150 20 -8 2 -44 5 -80 6 -36 1 -119 11 -185 21 -66 11 -131 22
-145 24 -14 2 -34 0 -45 -5z m40 -351 c9 -372 9 -373 108 -310 26 17 50 30 52
30 3 0 29 16 60 35 30 19 66 40 81 45 14 6 67 37 117 69 51 32 112 70 137 84
50 28 195 117 259 160 23 15 50 41 59 56 l18 29 54 -19 c52 -18 69 -31 90 -70
7 -13 5 -18 -9 -22 -13 -3 -24 -20 -32 -48 -6 -24 -18 -62 -25 -84 -22 -64
-52 -240 -63 -365 -20 -222 -33 -336 -50 -427 -15 -80 -16 -96 -4 -113 17 -23
46 -15 102 29 20 16 95 65 168 109 121 74 179 113 257 174 26 19 29 20 23 5
-4 -10 -7 -30 -7 -43 0 -18 -5 -24 -23 -24 -46 0 -386 -225 -494 -327 -80 -76
-86 -102 -81 -383 3 -208 3 -209 -19 -221 -30 -16 -39 -5 -24 28 8 18 12 86
12 211 -1 184 -5 212 -37 212 -26 0 -64 -24 -64 -40 0 -24 -11 -32 -26 -19
-10 8 -22 8 -46 -1 -67 -24 -300 -91 -363 -105 -100 -21 -153 -39 -167 -55
-18 -22 -38 -26 -38 -10 0 13 -93 6 -136 -10 -16 -6 -38 -20 -49 -30 -32 -30
-67 -16 -98 40 -30 54 -33 70 -14 70 8 0 22 8 31 19 17 19 66 188 92 316 8 39
23 108 34 155 38 165 54 266 55 338 0 102 -14 108 -132 55 -29 -12 -53 -21
-53 -18 0 2 -35 -11 -77 -29 -79 -33 -162 -62 -265 -90 -44 -13 -61 -23 -72
-44 l-14 -27 -11 28 c-22 56 -10 88 27 81 18 -4 55 7 109 30 46 19 101 40 124
46 23 6 53 16 68 22 70 28 218 78 233 78 10 0 32 13 50 29 l32 28 5 174 c2 96
5 238 5 317 1 98 4 142 12 142 8 0 14 -92 19 -310z m-49 193 c-3 -60 -8 -193
-12 -298 -4 -124 -11 -199 -20 -216 -10 -19 -30 -31 -81 -48 -37 -12 -77 -26
-88 -31 -11 -5 -36 -13 -55 -19 -19 -5 -93 -30 -165 -56 -71 -26 -145 -49
-163 -52 l-33 -5 50 78 c63 101 117 163 148 170 20 5 24 11 20 32 -5 28 55
125 128 203 23 25 48 55 54 68 7 12 40 58 74 101 34 44 79 102 100 130 20 27
40 50 42 50 3 0 3 -48 1 -107z m179 97 c33 -5 107 -12 165 -15 58 -3 164 -13
235 -21 241 -27 328 -47 323 -73 -3 -14 -150 -121 -167 -121 -5 0 -21 18 -35
41 -15 22 -31 38 -34 34 -4 -4 -6 -32 -4 -63 l3 -57 -58 -35 c-32 -19 -94 -57
-138 -85 -94 -60 -336 -195 -364 -202 -13 -3 -21 1 -24 14 -3 10 -9 147 -12
306 l-7 287 28 0 c16 0 56 -4 89 -10z m1008 -379 c75 -150 90 -188 65 -163
-28 28 -108 -8 -95 -41 5 -15 10 -15 41 -2 48 20 53 19 71 -15 23 -44 20 -121
-6 -154 -22 -28 -20 -47 3 -29 14 11 98 36 103 31 1 -2 17 -32 34 -66 31 -62
32 -65 14 -84 -25 -28 -163 -123 -258 -178 -45 -26 -115 -70 -155 -99 -43 -30
-77 -48 -82 -43 -6 6 -1 59 10 128 11 66 28 200 37 299 24 265 47 390 101 563
12 38 43 -1 117 -147z m147 -300 l20 -40 -22 -15 c-12 -8 -24 -14 -27 -12 -6
4 -2 106 5 106 2 0 13 -18 24 -39z m-1476 -116 c-8 -20 10 -19 27 1 11 14 13
14 22 -1 6 -12 3 -23 -12 -39 -28 -30 -27 -42 4 -22 24 16 24 15 31 -19 3 -19
4 -47 1 -60 -2 -14 0 -28 5 -31 12 -7 4 -69 -23 -175 -10 -42 -26 -109 -34
-150 -24 -117 -72 -288 -85 -304 -25 -30 -53 -16 -95 47 -69 105 -103 169 -98
188 3 10 -3 23 -15 31 -11 8 -36 50 -57 94 -21 44 -50 98 -65 120 -15 22 -39
64 -54 93 -24 48 -25 52 -8 52 26 0 34 11 20 27 -16 20 -5 26 111 58 53 15
139 45 191 66 103 42 143 49 134 24z m1528 -299 c-22 -41 -60 -105 -85 -143
-24 -37 -61 -96 -83 -131 -21 -34 -70 -106 -108 -160 -37 -53 -101 -146 -140
-207 -110 -167 -106 -168 -106 29 l0 166 25 -6 c32 -8 33 9 1 24 -21 9 -23 15
-19 59 3 26 12 60 19 74 14 29 112 111 226 191 42 29 95 67 119 84 54 38 181
106 187 100 2 -3 -14 -39 -36 -80z m-812 -557 c0 -12 -51 -35 -103 -44 -33 -6
-37 -10 -31 -29 7 -21 6 -21 -15 -2 -12 11 -20 24 -18 29 1 5 36 20 77 32 92
28 90 27 90 14z m-280 -55 c0 -3 -10 -14 -22 -24 l-23 -19 52 -50 c60 -58 108
-73 148 -47 21 14 25 14 25 2 0 -31 -73 -35 -128 -7 -39 20 -68 48 -98 95 -17
28 -17 29 1 42 19 14 45 19 45 8z m256 -58 c-8 -16 -17 -23 -21 -17 -3 6 2 25
12 42 22 37 30 15 9 -25z m-193 13 c25 -13 66 -59 67 -74 0 -5 -14 7 -31 28
-20 25 -39 37 -55 37 -14 0 -22 4 -19 10 8 13 11 13 38 -1z m270 -47 c-25 -33
-82 -42 -120 -17 -13 9 -22 19 -20 22 3 3 16 -2 29 -11 34 -24 67 -20 97 13
32 35 42 31 14 -7z m-457 -19 c-11 -11 -19 6 -11 24 8 17 8 17 12 0 3 -10 2
-21 -1 -24z m560 -60 c-10 -10 -19 5 -10 18 6 11 8 11 12 0 2 -7 1 -15 -2 -18z"/>
<path d="M7143 11985 c-16 -7 -74 -39 -129 -72 -54 -33 -144 -86 -199 -118
-102 -60 -156 -95 -233 -152 -24 -18 -52 -33 -63 -33 -33 0 -116 -48 -139 -80
-42 -59 -19 -87 223 -288 81 -68 147 -130 147 -137 0 -8 8 -15 18 -15 26 -1
236 -199 242 -230 4 -17 8 -21 13 -12 5 6 21 12 37 12 34 0 35 2 50 130 6 52
18 131 25 175 8 44 17 125 20 180 9 147 33 343 49 400 33 115 39 169 23 207
-17 41 -42 51 -84 33z m63 -42 c11 -39 8 -68 -20 -180 -14 -54 -30 -150 -35
-213 -6 -63 -15 -164 -21 -225 -8 -94 -42 -341 -56 -412 -2 -13 -11 -23 -19
-23 -14 0 -114 82 -210 172 -27 26 -53 48 -57 48 -5 0 -8 7 -8 15 0 8 -5 15
-11 15 -6 0 -29 16 -52 35 -23 19 -73 60 -112 91 -83 66 -202 180 -217 207
-14 27 16 66 74 95 40 20 52 22 84 13 39 -11 58 -6 35 8 -7 5 -11 13 -8 18 7
12 136 101 187 131 19 11 73 43 120 71 76 46 86 49 97 35 7 -9 14 -22 16 -28
2 -6 7 -8 11 -4 4 3 2 16 -4 28 -15 28 -8 35 85 89 85 49 110 51 121 14z"/>
<path d="M7045 11890 c-3 -5 1 -10 10 -10 9 0 13 5 10 10 -3 6 -8 10 -10 10
-2 0 -7 -4 -10 -10z"/>
<path d="M7030 11770 c-11 -11 -20 -28 -19 -37 0 -15 3 -14 16 5 14 21 41 33
29 13 -11 -17 6 -43 25 -38 22 6 25 -3 7 -21 -9 -9 -8 -12 4 -12 33 0 40 83 9
100 -29 15 -49 12 -71 -10z"/>
<path d="M6707 11612 c-16 -18 -15 -19 39 -20 31 -1 62 -6 68 -11 16 -13 89
-7 94 7 4 12 -15 17 -93 27 -27 4 -59 9 -70 11 -13 3 -28 -2 -38 -14z"/>
<path d="M6723 11500 c-63 -68 -71 -80 -54 -80 14 0 131 114 131 127 0 28 -19
17 -77 -47z"/>
<path d="M6875 11467 c-60 -59 -86 -160 -51 -195 22 -22 28 -11 15 26 -15 44
1 87 54 145 51 55 91 64 107 22 10 -26 30 -34 30 -12 0 32 -31 57 -72 57 -35
0 -47 -6 -83 -43z"/>
<path d="M6968 11378 c-2 -15 -13 -26 -33 -32 -69 -20 -78 -26 -65 -41 7 -8
22 -15 34 -15 38 1 106 75 91 100 -11 17 -23 11 -27 -12z"/>
<path d="M7056 11215 c4 -8 8 -15 10 -15 2 0 4 7 4 15 0 8 -4 15 -10 15 -5 0
-7 -7 -4 -15z"/>
<path d="M7022 11068 c3 -7 13 -15 24 -17 16 -3 17 -1 5 13 -16 19 -34 21 -29
4z"/>
<path d="M6260 11521 c0 -6 5 -13 10 -16 6 -3 10 1 10 9 0 9 -4 16 -10 16 -5
0 -10 -4 -10 -9z"/>
<path d="M6298 11403 c-9 -10 -18 -31 -20 -48 -3 -16 -19 -79 -36 -140 -17
-60 -38 -150 -47 -200 -9 -49 -31 -166 -49 -260 -50 -253 -48 -233 -25 -246
15 -8 28 -8 47 0 15 6 61 17 102 25 41 8 131 31 200 51 69 20 173 50 232 65
58 16 115 33 125 38 10 5 53 18 96 28 86 20 118 43 96 70 -7 9 -69 64 -138
122 -68 58 -119 108 -113 110 13 4 17 32 4 32 -4 0 -13 -5 -20 -12 -15 -15
-55 18 -262 221 -91 88 -168 161 -171 161 -3 0 -13 -8 -21 -17z m193 -173 c89
-85 180 -171 203 -190 22 -19 59 -52 81 -72 l40 -37 -37 6 c-30 4 -38 2 -38
-10 0 -17 71 -30 81 -14 8 12 181 -131 176 -146 -1 -5 -36 -18 -77 -29 -40
-10 -82 -24 -93 -30 -11 -5 -56 -19 -101 -29 -44 -11 -124 -33 -176 -50 -115
-36 -400 -100 -413 -92 -4 3 -6 24 -2 47 15 97 108 557 126 626 42 155 51 181
59 178 5 -2 81 -73 171 -158z"/>
<path d="M6380 11103 c-50 -19 -95 -98 -85 -152 4 -20 12 -42 17 -49 8 -9 8
-20 -1 -38 -17 -38 -13 -85 12 -129 28 -49 77 -70 142 -61 62 10 57 26 -9 24
-98 -3 -149 59 -125 152 10 41 10 50 -4 71 -10 13 -17 33 -17 44 0 24 73 105
95 105 7 0 15 5 17 11 5 14 48 -6 48 -21 0 -6 5 -10 10 -10 19 0 10 28 -15 44
-24 16 -57 19 -85 9z"/>
<path d="M6436 10986 c-12 -29 -20 -36 -42 -36 -20 0 -25 -3 -17 -11 6 -6 21
-9 34 -7 29 4 67 64 51 80 -8 8 -15 0 -26 -26z"/>
<path d="M6730 10852 c0 -9 44 -32 58 -32 10 1 -38 40 -49 40 -5 0 -9 -4 -9
-8z"/>
<path d="M6500 10821 c0 -18 -8 -34 -22 -44 -13 -8 -20 -18 -16 -22 4 -4 19 0
33 9 19 12 25 25 25 51 0 19 -4 35 -10 35 -5 0 -10 -13 -10 -29z"/>
<path d="M6895 10920 c-3 -5 -2 -10 4 -10 5 0 13 5 16 10 3 6 2 10 -4 10 -5 0
-13 -4 -16 -10z"/>
<path d="M5951 11762 c-34 -53 -40 -96 -15 -106 29 -11 35 -6 20 15 -17 25 -9
53 30 105 20 25 23 34 11 34 -8 0 -29 -22 -46 -48z"/>
<path d="M5996 11699 c-11 -10 -17 -21 -15 -24 7 -6 49 24 49 36 0 14 -13 10
-34 -12z"/>
<path d="M6011 11658 c-22 -59 24 -99 85 -73 19 8 37 21 40 30 10 26 -3 28
-26 5 -29 -29 -74 -24 -78 8 -2 13 2 30 8 38 10 11 9 14 -4 14 -9 0 -20 -10
-25 -22z"/>
<path d="M6120 11670 c0 -5 5 -10 10 -10 6 0 10 5 10 10 0 6 -4 10 -10 10 -5
0 -10 -4 -10 -10z"/>
<path d="M6473 12006 c-34 -28 -73 -59 -87 -69 -14 -10 -26 -22 -26 -27 0 -23
42 -7 86 31 26 23 58 46 71 52 13 5 23 17 23 25 0 9 6 12 18 7 9 -4 23 -9 31
-13 8 -3 12 0 10 7 -3 7 -18 19 -35 26 -29 12 -33 10 -91 -39z"/>
<path d="M6681 11991 c-17 -22 -38 -54 -45 -73 -8 -18 -26 -48 -40 -67 -26
-35 -32 -51 -18 -51 8 1 60 76 86 125 8 17 25 41 36 54 18 21 24 22 46 12 30
-13 34 -14 34 -1 0 8 -50 40 -64 40 -2 0 -18 -18 -35 -39z"/>
<path d="M6455 11900 c-8 -13 40 -42 62 -38 13 2 9 8 -19 25 -21 12 -40 18
-43 13z"/>
<path d="M7286 11583 c-10 -11 -7 -53 5 -53 6 0 19 5 30 10 15 9 20 7 25 -7 6
-19 32 -83 70 -173 13 -30 27 -53 31 -50 9 6 9 7 -24 85 -13 33 -35 89 -48
125 -20 59 -25 65 -52 67 -17 1 -33 0 -37 -4z"/>
<path d="M7490 11364 c0 -12 7 -24 15 -28 18 -7 45 3 45 16 0 6 -7 7 -16 4
-10 -4 -22 1 -30 11 -12 17 -13 17 -14 -3z"/>
<path d="M5856 11248 c-3 -7 -7 -35 -9 -63 -3 -27 -9 -58 -12 -67 -4 -10 -3
-18 3 -18 14 0 32 55 32 98 0 31 2 34 24 28 34 -8 43 12 11 24 -35 13 -45 13
-49 -2z"/>
<path d="M5983 11185 c-17 -7 -34 -23 -38 -35 -5 -15 -12 -19 -27 -14 -15 4
-19 2 -16 -7 3 -8 18 -14 34 -14 22 0 30 5 32 21 3 22 39 44 72 44 24 0 50
-37 50 -72 0 -16 5 -28 10 -28 22 0 3 96 -23 112 -18 12 -58 9 -94 -7z"/>
<path d="M6050 11097 c0 -13 -6 -29 -12 -36 -11 -10 -9 -12 7 -9 14 2 21 12
23 36 2 18 -1 32 -7 32 -6 0 -11 -10 -11 -23z"/>
<path d="M5820 11043 c0 -10 -5 -24 -12 -31 -6 -6 -8 -15 -4 -19 7 -7 30 17
38 38 3 8 51 -1 145 -28 58 -17 91 -13 55 6 -21 11 -103 32 -189 48 -28 5 -33
3 -33 -14z"/>
<path d="M7415 10911 c-13 -15 -14 -24 -5 -40 14 -26 24 -27 17 -1 -7 27 16
45 33 25 7 -8 17 -15 22 -15 13 0 -10 28 -32 40 -13 7 -22 4 -35 -9z"/>
<path d="M7391 10804 c-13 -15 -35 -15 -71 0 -8 3 -26 -3 -40 -14 -23 -18 -24
-21 -11 -52 7 -18 16 -45 18 -60 3 -16 12 -28 19 -28 19 0 17 19 -6 58 -11 18
-20 39 -20 47 0 22 30 34 56 23 28 -13 84 7 84 28 0 18 -12 17 -29 -2z"/>
<path d="M7352 10728 c5 -15 28 -23 28 -10 0 5 -7 13 -16 16 -10 4 -14 1 -12
-6z"/>
<path d="M7211 10714 c0 -11 3 -14 6 -6 3 7 2 16 -1 19 -3 4 -6 -2 -5 -13z"/>
<path d="M7130 10590 c0 -5 5 -10 10 -10 6 0 10 5 10 10 0 6 -4 10 -10 10 -5
0 -10 -4 -10 -10z"/>
<path d="M4737 11213 c-10 -92 -35 -161 -74 -204 l-36 -39 37 -33 c39 -34 56
-90 56 -183 0 -24 5 -44 10 -44 12 0 12 2 10 97 -2 102 20 137 90 142 29 2 24
25 -14 63 -27 27 -35 46 -45 99 -6 36 -11 87 -11 112 0 66 -16 59 -23 -10z
m25 -163 c6 -19 20 -45 31 -57 l20 -23 -21 0 c-13 0 -30 -13 -44 -34 l-24 -34
-32 38 c-28 34 -30 39 -16 51 16 14 63 107 65 131 1 7 4 2 6 -12 2 -14 9 -41
15 -60z"/>
<path d="M5215 9882 c-16 -11 -102 -88 -190 -173 -88 -85 -187 -176 -220 -204
-88 -74 -164 -144 -320 -295 -78 -74 -169 -161 -203 -193 -51 -49 -62 -64 -62
-91 0 -29 68 -185 120 -276 37 -63 101 -204 196 -427 38 -88 63 -112 123 -120
47 -6 296 41 506 95 266 70 446 108 538 117 l68 6 -6 -38 c-4 -21 -10 -51 -15
-68 -17 -62 -20 -103 -11 -151 9 -42 21 -61 87 -129 200 -210 307 -331 377
-426 107 -146 127 -169 144 -169 8 0 74 -58 145 -130 72 -71 134 -130 139
-130 35 0 142 52 249 122 69 45 154 100 190 123 36 23 153 88 260 144 222 116
333 190 374 249 30 44 146 371 146 414 0 15 7 58 15 96 8 38 17 110 21 160 7
91 7 91 -22 120 -16 16 -34 36 -39 43 -13 18 -156 179 -260 294 -190 209 -252
282 -388 460 -146 189 -179 210 -252 156 -141 -104 -493 -331 -550 -355 -20
-9 -39 -25 -42 -36 -4 -16 -14 -20 -50 -20 -33 0 -60 -9 -104 -35 -33 -19 -64
-35 -69 -35 -5 0 -17 14 -27 30 -9 17 -20 30 -24 30 -17 0 -222 219 -359 384
-36 43 -88 103 -117 135 -28 31 -73 84 -100 117 -26 34 -79 98 -118 142 -76
89 -96 97 -150 64z m100 -62 l38 -39 -24 -10 c-52 -20 -81 -66 -169 -266 -12
-27 -44 -116 -70 -196 -27 -80 -69 -198 -94 -262 -26 -64 -46 -120 -46 -125 0
-5 -22 -57 -50 -115 -48 -101 -157 -446 -167 -529 -3 -22 1 -49 10 -68 9 -17
14 -37 11 -45 -6 -16 -67 -28 -104 -20 -22 4 -70 50 -70 67 0 4 19 19 43 35
32 22 50 45 78 103 41 83 99 234 99 255 0 28 73 235 134 380 69 163 161 434
172 505 4 25 10 50 14 55 4 6 18 48 30 95 13 47 26 92 31 100 4 9 2 21 -7 31
-13 14 -10 20 26 53 22 20 48 36 58 36 10 0 35 -18 57 -40z m-165 -86 c0 -46
-21 -103 -36 -97 -8 3 -14 1 -14 -4 0 -5 -14 -24 -31 -42 -16 -18 -27 -36 -24
-40 4 -3 23 12 42 34 32 36 35 37 31 15 -12 -57 -61 -228 -78 -270 -10 -25
-34 -92 -53 -150 -19 -58 -51 -143 -72 -190 -58 -135 -85 -206 -125 -340 -66
-218 -114 -330 -160 -373 -45 -42 -61 -43 -70 -6 -5 20 -1 26 24 34 42 14 45
35 5 35 -22 0 -39 8 -56 28 -36 41 -156 291 -150 313 3 10 -1 22 -8 27 -7 4
-36 52 -65 108 -63 120 -62 132 11 189 29 22 111 99 183 170 72 72 156 150
188 173 53 41 122 105 339 318 53 52 102 94 108 94 6 0 11 -12 11 -26z m310
-94 c30 -38 58 -70 61 -70 4 0 33 -32 65 -72 31 -39 81 -96 110 -127 89 -95
164 -183 164 -192 0 -4 -4 -11 -10 -14 -5 -3 -10 -16 -10 -28 0 -20 1 -20 19
6 l18 28 89 -98 c49 -54 95 -102 102 -106 6 -4 12 -12 12 -18 0 -9 -75 -59
-135 -89 -48 -24 -65 -68 -97 -252 -17 -95 -33 -186 -35 -201 -7 -38 -45 -52
-179 -68 -143 -16 -161 -16 -187 9 -16 15 -34 20 -69 19 -55 -2 -88 -25 -88
-61 0 -32 -30 -50 -115 -69 -39 -9 -99 -23 -135 -32 -36 -8 -101 -18 -145 -21
-72 -6 -83 -4 -107 15 -40 32 -43 68 -15 158 14 43 39 130 57 193 31 111 91
272 109 294 5 6 25 58 46 116 21 58 43 116 50 130 7 14 37 99 68 190 65 195
137 370 174 423 15 22 38 41 57 46 35 10 30 14 126 -109z m1582 -230 c21 -23
57 -66 80 -98 103 -139 251 -316 385 -462 32 -35 41 -52 36 -68 -3 -12 0 -29
7 -37 7 -8 10 -25 6 -38 -3 -14 1 -33 10 -45 14 -20 21 -22 63 -16 l47 6 72
-73 c40 -42 72 -83 72 -94 0 -29 -62 -102 -128 -150 -31 -23 -109 -72 -172
-110 -63 -38 -144 -90 -180 -115 -36 -26 -92 -62 -125 -80 -33 -18 -78 -47
-100 -65 -62 -49 -161 -114 -192 -126 -51 -20 -103 -21 -110 -1 -3 9 -20 31
-37 47 -18 17 -41 43 -53 60 -12 16 -25 27 -29 23 -4 -4 -1 -16 7 -25 7 -10
-15 9 -49 42 -66 63 -74 76 -42 68 11 -3 20 0 20 6 0 12 -7 15 -50 25 -16 3
-58 45 -115 112 -49 58 -139 161 -198 227 -118 133 -249 300 -268 340 -7 15
-9 40 -5 61 6 29 17 43 59 71 28 19 56 35 61 35 5 0 14 6 20 14 19 25 128 76
161 76 17 0 55 -7 84 -16 37 -11 57 -12 64 -5 15 15 -10 41 -39 41 -13 0 -24
3 -24 6 0 10 50 47 106 79 134 76 303 191 434 296 49 39 76 37 122 -11z
m-1069 -593 c-3 -22 1 -45 14 -68 20 -38 147 -210 184 -249 54 -57 178 -199
219 -250 25 -30 47 -57 50 -60 3 -3 30 -34 59 -70 90 -109 262 -289 296 -310
18 -11 40 -20 50 -20 31 0 126 51 217 117 47 34 112 76 145 94 32 18 94 58
138 89 95 67 255 163 262 156 11 -11 -9 -44 -33 -55 -35 -15 -238 -146 -294
-189 -25 -18 -97 -65 -160 -104 -182 -112 -280 -179 -296 -203 -23 -35 -63
-158 -105 -323 -42 -165 -45 -192 -28 -209 16 -16 4 -30 -31 -35 -23 -4 -36 2
-61 28 -29 30 -30 34 -15 49 15 16 24 43 62 189 13 49 23 70 36 74 21 5 23 13
7 29 -8 8 -3 35 17 99 15 49 32 94 37 101 17 23 -39 120 -115 201 -69 73 -199
216 -279 306 -35 40 -124 150 -237 291 -31 39 -93 108 -139 154 -88 89 -93
102 -57 156 11 15 47 42 61 45 1 0 -1 -15 -4 -33z m1635 -78 c47 -53 47 -53
17 -67 -36 -16 -48 -6 -41 33 5 22 2 36 -9 45 -14 12 -20 30 -10 30 3 0 22
-19 43 -41z m-1658 -151 c0 -10 5 -18 11 -18 7 0 9 10 7 25 -3 14 -2 25 3 25
8 0 82 -85 179 -205 97 -120 195 -239 224 -270 87 -93 314 -351 328 -375 22
-33 18 -56 -47 -275 -26 -88 -55 -185 -64 -215 -10 -36 -22 -56 -33 -58 -11
-2 -44 22 -85 62 l-67 65 26 10 c44 17 47 35 5 28 -79 -13 -97 -3 -167 95 -84
117 -172 220 -347 406 -132 142 -141 155 -147 199 -4 30 -1 69 7 103 8 30 25
110 38 178 16 85 27 122 37 122 9 0 11 7 7 22 -6 17 -4 20 9 15 13 -5 15 -1
11 21 l-6 27 15 -25 15 -25 2 40 c1 22 3 32 6 23 8 -33 25 -19 18 15 -5 24 -4
28 4 17 6 -8 11 -23 11 -32z m1900 -219 c-5 -46 -10 -87 -10 -91 0 -4 -13 -2
-29 3 -27 9 -77 -2 -152 -35 -10 -5 -19 -2 -22 8 -4 10 15 28 62 59 45 30 80
64 106 101 22 32 42 53 47 48 5 -5 4 -45 -2 -93z m-2420 -39 c11 -11 20 -22
20 -24 0 -5 -140 -39 -145 -35 -2 2 -1 16 2 31 6 30 29 44 48 28 9 -7 16 -6
25 5 17 20 26 19 50 -5z m2380 -259 c0 -13 -29 -35 -37 -28 -7 8 15 37 28 37
5 0 9 -4 9 -9z m-50 -116 c0 -8 -4 -15 -10 -15 -5 0 -7 7 -4 15 4 8 8 15 10
15 2 0 4 -7 4 -15z m-444 -92 c-4 -9 -10 -36 -13 -60 -3 -24 -10 -43 -14 -43
-5 0 -12 0 -16 -1 -12 -2 -3 63 13 93 16 30 40 39 30 11z m116 -96 c-27 -35
-59 -85 -71 -112 -33 -74 -65 -110 -128 -144 -31 -17 -59 -29 -61 -26 -9 9 21
36 63 54 35 16 49 31 81 87 44 80 121 193 143 212 35 29 20 -11 -27 -71z
m-104 -40 c-35 -31 -49 -52 -54 -80 -8 -46 -21 -56 -33 -24 -17 44 1 80 51
104 25 12 49 27 53 32 3 6 12 11 18 11 7 0 -9 -19 -35 -43z m-491 -300 c11 4
14 2 11 -8 -9 -26 -33 -15 -35 16 -1 19 1 22 4 8 3 -15 9 -20 20 -16z m123
-69 c0 -13 -23 -5 -28 10 -2 7 2 10 12 6 9 -3 16 -11 16 -16z"/>
<path d="M5034 9645 c-27 -25 -53 -45 -57 -45 -18 0 -1 -45 18 -49 17 -3 18
-1 6 13 -12 15 -8 23 40 66 29 27 51 51 48 54 -3 3 -27 -15 -55 -39z"/>
<path d="M4986 9466 c-15 -25 -23 -52 -20 -61 5 -12 15 0 35 41 32 64 33 64
20 64 -5 0 -21 -20 -35 -44z"/>
<path d="M4680 9185 c-7 -9 -9 -19 -5 -23 4 -4 10 -1 12 5 4 10 8 9 20 -2 8
-8 19 -13 24 -10 4 3 11 -6 15 -20 3 -14 10 -25 15 -25 13 0 11 15 -5 55 -11
26 -21 35 -39 35 -14 0 -30 -7 -37 -15z"/>
<path d="M4461 9044 c-17 -14 -31 -33 -31 -41 0 -14 2 -14 18 0 17 15 19 15
35 0 15 -16 18 -15 35 1 17 15 20 15 25 1 4 -8 4 -22 1 -30 -4 -8 -1 -15 5
-15 16 0 13 62 -5 88 -20 29 -46 28 -83 -4z"/>
<path d="M4558 8593 c-24 -6 -22 -18 5 -36 19 -12 25 -30 36 -106 13 -83 21
-105 35 -83 2 4 -2 37 -9 72 -8 36 -14 86 -15 113 0 49 -5 53 -52 40z"/>
<path d="M5230 9550 c0 -11 6 -20 14 -20 22 0 34 -22 40 -69 5 -51 8 -55 35
-46 27 8 27 21 1 28 -17 4 -20 14 -20 66 l0 61 -35 0 c-28 0 -35 -4 -35 -20z"/>
<path d="M5330 9562 c0 -5 11 -14 24 -21 20 -11 24 -23 30 -79 3 -37 6 -86 6
-110 0 -29 4 -42 12 -40 8 3 10 25 7 69 -2 35 -4 92 -4 127 l0 62 -37 0 c-21
0 -38 -4 -38 -8z"/>
<path d="M5195 8885 c-22 -19 -37 -34 -33 -35 8 0 108 61 108 66 0 15 -42 -2
-75 -31z"/>
<path d="M5558 8809 c-22 -12 -24 -33 -4 -26 9 4 17 -2 21 -14 5 -16 12 -19
31 -15 20 5 24 3 24 -17 0 -13 -5 -28 -12 -35 -9 -9 -9 -12 0 -12 7 0 17 11
23 24 9 19 8 32 -7 63 -20 40 -45 51 -76 32z"/>
<path d="M5400 8552 c0 -16 28 -47 36 -39 4 4 2 7 -4 7 -7 0 -12 9 -12 20 0
11 -4 20 -10 20 -5 0 -10 -4 -10 -8z"/>
<path d="M4891 8399 c-45 -45 -80 -84 -77 -86 9 -9 43 16 70 52 39 50 72 71
91 55 17 -14 39 -4 31 15 -3 8 0 15 6 17 17 6 0 28 -21 28 -10 0 -55 -37 -100
-81z"/>
<path d="M5402 8453 c-16 -14 -18 -23 -12 -40 12 -30 44 -29 58 1 9 20 7 27
-7 40 -17 15 -20 15 -39 -1z m28 -29 c0 -14 -12 -19 -23 -8 -9 9 4 35 14 28 5
-3 9 -12 9 -20z"/>
<path d="M6828 9299 c-26 -15 -23 -38 3 -32 12 3 24 1 28 -4 10 -16 70 -42 76
-33 7 11 -4 41 -23 63 -17 19 -57 22 -84 6z"/>
<path d="M7003 9223 c-19 -7 -16 -21 4 -19 11 0 18 -6 18 -19 0 -15 6 -19 23
-17 15 2 22 -2 22 -13 0 -9 4 -14 10 -10 19 12 -17 69 -48 77 -9 3 -23 3 -29
1z"/>
<path d="M6687 9054 c-40 -51 -49 -96 -51 -249 -1 -71 4 -105 24 -162 13 -40
28 -73 32 -73 12 0 10 11 -11 72 -10 30 -21 73 -25 96 -7 53 10 250 24 267 6
7 32 18 58 25 26 7 51 15 56 18 9 5 -43 51 -60 52 -6 0 -27 -21 -47 -46z"/>
<path d="M6980 9040 c0 -5 7 -10 16 -10 8 0 12 5 9 10 -3 6 -10 10 -16 10 -5
0 -9 -4 -9 -10z"/>
<path d="M6951 8894 c2 -87 -5 -102 -54 -115 -44 -11 -117 -63 -105 -74 4 -4
19 0 35 8 36 20 180 57 219 57 41 0 126 -42 152 -74 26 -33 46 -126 39 -179
-4 -30 -3 -37 6 -28 7 8 11 40 10 83 -4 135 -72 223 -179 230 -45 3 -49 5 -47
28 3 45 -10 57 -16 15 -4 -25 -12 -41 -22 -43 -13 -2 -15 8 -15 62 1 40 -4 70
-12 78 -10 10 -12 0 -11 -48z"/>
<path d="M7289 8910 l-24 -22 25 7 c14 4 35 8 48 9 12 0 21 6 19 11 -6 19 -44
16 -68 -5z"/>
<path d="M6378 8749 c-24 -13 -23 -28 1 -22 14 4 20 -3 26 -29 7 -29 9 -30 12
-9 5 27 -4 71 -15 71 -4 0 -15 -5 -24 -11z"/>
<path d="M6263 8733 c-13 -2 -23 -9 -23 -14 0 -7 12 -8 31 -4 28 6 30 5 24
-14 -5 -15 -2 -21 10 -21 12 0 15 7 13 27 -3 28 -15 34 -55 26z"/>
<path d="M6950 8665 c0 -30 5 -55 10 -55 6 0 10 25 10 55 0 30 -4 55 -10 55
-5 0 -10 -25 -10 -55z"/>
<path d="M7000 8696 c0 -14 5 -28 10 -31 6 -4 10 7 10 24 0 17 -4 31 -10 31
-5 0 -10 -11 -10 -24z"/>
<path d="M6815 8578 c10 -44 63 -153 83 -171 22 -18 78 -37 110 -37 41 0 110
39 132 74 21 35 27 91 10 101 -6 4 -10 -6 -10 -22 0 -42 -18 -59 -75 -72 -59
-12 -90 -9 -136 14 -46 23 -77 60 -89 107 -13 47 -35 52 -25 6z"/>
<path d="M6946 8561 c-4 -7 -5 -15 -2 -18 9 -9 19 4 14 18 -4 11 -6 11 -12 0z"/>
<path d="M6460 8435 c-35 -37 -15 -44 21 -7 20 20 26 32 17 32 -8 0 -25 -11
-38 -25z"/>
<path d="M6946 8289 c-6 -38 -2 -59 9 -48 10 11 17 89 8 89 -6 0 -13 -19 -17
-41z"/>
<path d="M7356 8274 c-9 -9 -14 -19 -11 -22 3 -3 13 2 22 11 9 9 14 19 11 22
-3 3 -13 -2 -22 -11z"/>
<path d="M7460 8283 c0 -9 57 -43 71 -43 19 0 8 20 -21 35 -32 16 -50 19 -50
8z"/>
<path d="M6740 8239 c1 -15 50 -56 50 -41 0 5 -11 19 -25 32 -17 16 -25 19
-25 9z"/>
<path d="M6974 8179 c-3 -6 -2 -15 4 -21 6 -6 11 -2 15 11 5 22 -7 29 -19 10z"/>
<path d="M6650 8005 c0 -8 7 -15 15 -15 8 0 15 4 15 9 0 5 -7 11 -15 15 -9 3
-15 0 -15 -9z"/>
<path d="M5930 8412 c0 -5 14 -21 30 -37 36 -34 40 -22 5 18 -25 28 -35 33
-35 19z"/>
<path d="M6205 8101 c-38 -9 -83 -38 -95 -62 -13 -23 -13 -109 0 -109 6 0 10
18 10 39 0 54 7 69 43 87 21 11 32 13 37 5 4 -8 17 -7 44 4 36 15 41 15 92 -5
84 -34 145 -137 125 -208 -6 -18 -6 -34 -1 -37 10 -6 26 60 21 85 -11 64 -27
95 -70 139 -48 49 -58 53 -151 66 -14 2 -39 0 -55 -4z"/>
<path d="M6180 7938 c0 -6 11 -30 24 -53 38 -64 160 -120 173 -80 1 6 -10 10
-26 11 -50 2 -121 51 -139 95 -14 37 -32 52 -32 27z"/>
<path d="M6026 7881 c-23 -24 -25 -29 -11 -35 9 -3 30 -6 46 -6 20 0 43 -12
72 -39 23 -22 69 -64 102 -94 56 -52 61 -55 77 -40 24 22 23 36 -2 28 -24 -8
-49 11 -171 131 l-85 84 -28 -29z"/>
<path d="M8250 7901 c0 -40 -33 -91 -67 -103 -18 -7 -33 -14 -33 -18 0 -3 14
-13 30 -22 32 -18 49 -50 57 -111 7 -49 26 -42 35 13 9 53 27 73 78 90 51 17
51 30 1 30 -46 0 -52 7 -66 79 -11 54 -35 83 -35 42z m20 -79 c0 -15 7 -38 16
-50 9 -13 11 -22 4 -22 -6 0 -17 -15 -25 -32 -8 -18 -14 -28 -15 -22 0 6 -11
27 -24 46 l-23 35 23 22 c13 13 24 29 24 37 0 8 5 14 10 14 6 0 10 -12 10 -28z"/>
<path d="M5100 7179 c-52 -22 -126 -55 -165 -74 -38 -18 -128 -61 -200 -94
-124 -59 -159 -76 -215 -107 -57 -31 -220 -94 -285 -110 -55 -13 -77 -24 -106
-53 -38 -39 -119 -144 -119 -154 0 -4 -23 -41 -52 -83 -66 -98 -71 -138 -33
-284 14 -57 31 -112 36 -123 6 -10 12 -27 14 -39 2 -11 20 -61 39 -112 19 -50
53 -152 76 -226 44 -141 78 -236 137 -383 19 -48 57 -163 83 -254 52 -180 84
-242 118 -223 9 5 40 17 67 25 28 9 77 27 110 39 33 13 101 38 150 56 50 18
94 39 98 46 4 8 21 14 37 14 50 0 364 120 490 188 25 13 92 50 150 82 58 32
116 61 130 65 37 11 59 34 90 95 15 30 42 80 59 110 63 112 71 133 71 200 -1
50 -8 81 -30 135 -17 38 -30 75 -30 81 0 6 -16 43 -35 80 -44 84 -136 300
-175 410 -16 44 -49 128 -74 187 -24 58 -51 130 -60 160 -19 64 -79 199 -107
238 -10 15 -33 55 -49 88 l-31 61 -47 -1 c-31 0 -79 -13 -142 -40z m195 -46
c9 -22 12 -41 6 -51 -8 -17 -25 -165 -36 -327 -8 -105 -35 -366 -40 -385 -10
-35 -34 -232 -39 -320 -3 -52 -8 -124 -12 -160 -8 -80 7 -139 46 -184 33 -37
179 -124 255 -151 28 -10 55 -22 60 -25 6 -4 43 -19 83 -34 39 -15 72 -33 72
-39 -1 -17 -22 -42 -46 -55 -19 -10 -27 -6 -66 28 -60 54 -128 96 -283 175
-127 64 -134 67 -235 76 -58 6 -153 12 -211 14 -58 2 -155 9 -215 15 -60 5
-132 10 -161 10 l-51 0 -7 -85 c-4 -47 -5 -100 -1 -117 4 -18 9 -154 13 -303
3 -148 6 -283 7 -300 1 -20 -4 -30 -14 -30 -12 0 -14 29 -15 180 0 250 -29
564 -66 724 -20 88 -78 205 -146 298 -21 28 -68 96 -105 150 -67 98 -96 132
-132 157 -19 13 -19 15 -2 41 15 23 22 26 54 21 29 -4 50 2 98 27 64 33 205
117 214 127 13 14 416 260 427 260 2 0 16 9 30 20 14 11 30 20 36 20 22 0
-456 -327 -556 -380 -39 -21 -47 -30 -47 -53 0 -25 -2 -27 -20 -17 -24 13 -73
-9 -90 -39 -26 -50 1 -144 73 -246 20 -27 74 -115 122 -195 47 -80 97 -153
110 -163 60 -43 535 -97 642 -73 47 11 57 51 88 366 15 151 31 307 35 345 4
39 11 117 14 175 4 58 14 164 23 235 9 72 17 165 18 208 2 63 6 80 21 92 24
17 31 12 49 -32z m-125 19 c0 -5 -8 -16 -17 -24 -22 -18 -157 -98 -166 -98 -4
0 -29 -14 -57 -31 -28 -17 -53 -30 -55 -27 -2 2 31 25 74 51 43 26 107 68 142
92 63 45 79 52 79 37z m22 -245 c-12 -100 -25 -225 -28 -277 -6 -108 -13 -175
-48 -490 -14 -124 -26 -244 -26 -266 0 -25 -6 -47 -15 -54 -9 -7 -14 -19 -11
-27 4 -8 -4 -17 -20 -23 -44 -17 -251 -11 -374 10 -63 12 -138 25 -167 30 -90
15 -101 25 -162 136 -21 39 -75 127 -119 195 -113 173 -130 231 -85 282 18 19
53 23 70 6 17 -17 35 0 29 27 -7 28 -11 25 144 125 148 96 128 83 277 189 65
46 165 116 223 155 58 39 136 92 173 118 38 26 73 47 79 47 5 0 22 9 36 21
l27 20 9 -21 c7 -15 3 -79 -12 -203z m-173 199 c-16 -15 -179 -132 -249 -179
-47 -31 -103 -70 -124 -87 -22 -17 -85 -58 -140 -91 -56 -33 -128 -78 -161
-99 -84 -54 -213 -130 -221 -130 -4 0 1 9 11 20 29 32 8 36 -25 5 -16 -16 -33
-25 -37 -22 -4 4 3 14 15 23 12 8 22 19 22 25 0 13 -44 11 -58 -3 -20 -20 -14
1 10 35 81 117 98 130 235 171 78 23 197 77 466 213 212 106 272 134 256 119z
m364 -136 c38 -75 46 -101 41 -125 -10 -51 -9 -60 6 -60 20 0 29 -17 95 -185
31 -80 65 -165 75 -190 58 -140 85 -202 116 -266 19 -39 34 -74 34 -78 0 -3 8
-25 19 -49 68 -155 81 -193 81 -236 -1 -53 -32 -134 -81 -207 -19 -28 -39 -60
-45 -70 -11 -19 -13 -19 -65 0 -30 10 -67 24 -84 32 -16 7 -55 23 -85 34 -70
27 -191 94 -231 128 -17 14 -40 46 -51 71 -19 43 -19 55 -9 191 16 203 19 236
31 315 22 158 51 408 60 535 18 235 22 261 34 258 6 -2 33 -46 59 -98z m-1379
-657 c92 -117 210 -290 252 -368 35 -66 84 -213 84 -253 0 -6 -9 -14 -20 -17
-11 -3 -20 -11 -20 -17 0 -5 6 -8 13 -5 8 3 19 2 24 -1 6 -4 18 -104 28 -227
21 -269 28 -432 20 -423 -4 3 -19 48 -35 100 -16 51 -38 116 -48 143 -11 28
-39 97 -62 155 -23 58 -53 141 -67 185 -13 44 -41 128 -62 186 -43 123 -41
159 10 159 44 0 35 16 -25 41 -48 19 -55 26 -61 57 -4 20 -18 58 -31 84 -21
42 -74 219 -74 248 0 26 34 4 74 -47z m66 -367 c0 -3 -4 -8 -10 -11 -5 -3 -10
-1 -10 4 0 6 5 11 10 11 6 0 10 -2 10 -4z m468 -338 c18 -18 14 -46 -8 -58
-17 -9 -20 -7 -26 15 -5 19 -11 24 -25 20 -27 -9 -24 14 4 25 31 12 41 12 55
-2z m463 -164 c30 -15 41 -43 27 -68 -11 -20 -28 -12 -28 14 0 28 -39 50 -86
50 -41 0 -43 -2 -107 -88 -64 -86 -94 -119 -101 -111 -7 7 154 214 172 221 22
9 90 -1 123 -18z m173 -43 c-4 -19 -19 -40 -38 -54 -34 -24 -86 -72 -86 -79 0
-2 15 -3 33 -1 l32 4 -35 -20 c-19 -11 -44 -20 -55 -21 -11 0 -43 -23 -72 -52
l-52 -52 -88 0 c-79 -1 -93 2 -135 27 -51 30 -78 69 -78 113 0 22 2 25 15 14
8 -7 15 -23 15 -36 0 -27 41 -70 87 -90 18 -8 59 -14 92 -14 59 0 62 1 130 59
38 33 106 100 152 150 46 50 84 89 86 87 2 -1 0 -17 -3 -35z m-238 -106 c-23
-17 -36 -19 -36 -6 0 11 18 19 40 20 11 0 10 -3 -4 -14z m-16 -73 c0 -10 -45
-32 -65 -32 -24 0 -17 15 13 27 34 14 52 15 52 5z m-342 -239 c2 -8 -5 -13
-17 -13 -12 0 -21 6 -21 16 0 18 31 15 38 -3z"/>
<path d="M4728 6690 c-21 -38 -12 -43 46 -26 41 12 53 12 118 -5 40 -10 108
-33 150 -51 43 -17 81 -28 85 -24 18 18 -32 38 -291 115 -87 27 -88 27 -108
-9z"/>
<path d="M4835 6607 c-4 -10 -5 -21 -1 -24 10 -10 18 4 13 24 -4 17 -4 17 -12
0z"/>
<path d="M4945 6548 c-11 -6 -43 -32 -70 -57 -28 -25 -119 -104 -203 -175 -83
-71 -149 -133 -146 -138 6 -10 9 -8 93 65 l54 48 22 -21 c12 -11 24 -20 28
-20 13 0 7 23 -9 41 -15 17 -14 20 12 43 16 13 45 38 64 54 32 29 36 30 52 15
24 -21 36 -8 15 15 -15 17 -13 20 31 58 26 23 57 47 70 55 38 24 26 39 -13 17z"/>
<path d="M4720 6540 c0 -5 5 -10 11 -10 5 0 7 5 4 10 -3 6 -8 10 -11 10 -2 0
-4 -4 -4 -10z"/>
<path d="M4280 6321 c0 -6 6 -14 13 -18 29 -19 39 -41 27 -62 -7 -14 -7 -21
-1 -21 16 0 24 46 12 69 -13 23 -51 47 -51 32z"/>
<path d="M4880 6060 c0 -5 11 -10 25 -10 21 0 25 -5 26 -32 l1 -33 7 30 c4 17
3 36 -2 43 -11 14 -57 16 -57 2z"/>
<path d="M4720 6030 c0 -5 15 -10 33 -12 28 -3 32 -6 30 -30 -1 -16 2 -28 7
-28 11 0 24 59 15 68 -10 10 -85 13 -85 2z"/>
<path d="M4460 5951 c0 -6 11 -24 25 -39 18 -19 25 -22 25 -11 0 8 -11 26 -25
39 -14 13 -25 18 -25 11z"/>
<path d="M5404 6511 c-45 -27 -74 -73 -74 -114 0 -41 7 -48 39 -40 19 5 20 8
8 22 -19 22 -13 82 10 98 44 33 93 29 135 -10 36 -33 49 -127 24 -171 -21 -36
-11 -49 15 -17 14 17 19 38 18 75 -2 80 -11 107 -49 137 -47 38 -87 45 -126
20z"/>
<path d="M5503 6223 c-48 -5 -69 -29 -59 -69 8 -29 26 -32 26 -4 0 25 25 36
45 20 15 -12 16 -11 19 12 3 37 76 5 76 -33 0 -12 5 -16 14 -13 10 4 20 -14
36 -62 30 -90 24 -173 -16 -215 -33 -35 -24 -52 11 -19 35 33 48 82 43 159 -9
113 -65 208 -133 223 -11 2 -39 3 -62 1z"/>
<path d="M5348 6070 c-26 -16 -11 -43 22 -38 25 4 29 0 44 -46 24 -73 64 -117
118 -126 23 -5 46 -6 51 -3 15 9 -5 23 -36 23 -21 0 -41 10 -63 31 -28 27 -31
34 -22 55 6 13 15 24 20 24 4 0 8 7 8 15 0 21 -13 19 -28 -5 -18 -30 -27 -25
-43 28 -16 49 -37 62 -71 42z"/>
<path d="M5391 5849 c-23 -37 -26 -49 -13 -49 10 0 45 71 38 77 -3 3 -14 -10
-25 -28z"/>
<path d="M5580 5695 c0 -8 5 -15 10 -15 6 0 10 7 10 15 0 8 -4 15 -10 15 -5 0
-10 -7 -10 -15z"/>
<path d="M4144 5765 c-10 -8 -14 -15 -7 -15 19 0 43 11 43 21 0 13 -14 11 -36
-6z"/>
<path d="M4255 5621 c-3 -5 -1 -12 5 -16 5 -3 10 1 10 9 0 18 -6 21 -15 7z"/>
<path d="M8485 7048 c-11 -6 -36 -26 -55 -45 -19 -19 -86 -68 -148 -110 -62
-41 -116 -81 -119 -89 -2 -7 -19 -22 -37 -32 -18 -11 -80 -58 -138 -104 -57
-47 -122 -97 -144 -110 -21 -14 -88 -69 -147 -122 -60 -53 -125 -108 -145
-123 -20 -15 -59 -43 -87 -63 -27 -20 -82 -60 -122 -90 -95 -69 -133 -127
-133 -201 0 -61 49 -195 141 -388 28 -58 62 -128 75 -156 29 -61 84 -213 84
-232 0 -9 -14 -13 -45 -13 -24 0 -108 -9 -187 -21 -79 -11 -210 -24 -293 -27
l-150 -7 -63 -95 c-35 -52 -87 -142 -116 -200 -70 -144 -204 -380 -231 -410
-13 -14 -33 -50 -45 -80 -12 -30 -33 -79 -46 -108 l-24 -53 34 -117 c19 -64
59 -187 88 -272 l54 -155 70 -58 c64 -55 282 -223 378 -292 31 -23 71 -37 147
-54 57 -13 165 -41 239 -62 110 -31 274 -69 301 -69 3 0 14 8 25 18 10 9 44
36 74 58 30 23 105 92 165 154 61 62 158 161 216 219 104 103 145 163 167 241
5 19 48 126 96 238 62 144 85 209 80 225 -3 12 -22 56 -41 97 -20 41 -57 127
-83 191 l-48 116 127 92 c328 238 463 345 654 521 45 42 104 94 130 116 81 68
83 124 10 281 -20 43 -50 119 -67 168 -19 53 -37 90 -45 90 -8 0 -14 14 -15
40 -2 39 -23 88 -156 375 -32 69 -70 154 -85 190 -21 52 -250 516 -260 528 -8
9 -63 9 -80 0z m49 -34 c13 -5 12 -11 -8 -37 -41 -56 -75 -171 -130 -447 -30
-151 -53 -261 -86 -410 -4 -19 -26 -127 -49 -240 -23 -113 -48 -225 -56 -250
-8 -25 -26 -88 -39 -140 -14 -52 -39 -142 -56 -200 -25 -88 -29 -109 -19 -132
14 -35 42 -36 125 -7 32 11 102 33 154 48 52 16 124 38 160 50 36 12 118 33
184 47 65 14 171 42 236 63 64 22 136 42 158 46 23 4 53 16 67 27 51 40 23 1
-37 -52 -54 -48 -68 -55 -108 -57 -25 -1 -54 -4 -65 -6 -106 -26 -122 -33
-146 -60 -26 -30 -27 -30 -33 -9 -4 12 -12 22 -18 22 -53 0 -483 -134 -594
-185 -85 -40 -91 -45 -107 -86 -9 -24 -21 -66 -27 -94 -16 -71 -46 -198 -67
-282 -16 -68 -16 -73 0 -91 35 -38 17 -62 -47 -62 -40 0 -79 35 -56 50 8 6 18
10 22 10 4 0 12 17 17 38 5 20 19 71 30 112 11 41 32 128 46 193 36 157 32
183 -45 285 -82 109 -240 291 -369 424 -59 62 -156 166 -216 231 -101 110
-107 120 -107 159 1 22 6 46 11 51 8 8 11 4 11 -12 0 -42 40 -96 284 -381 94
-110 157 -178 315 -342 52 -53 99 -104 103 -112 11 -19 37 -20 58 -3 22 17 37
60 50 142 6 39 26 126 44 195 19 69 46 179 61 245 15 66 33 143 40 170 8 28
17 73 21 100 3 28 12 66 19 85 7 19 18 78 25 130 7 52 28 163 46 245 35 154
78 362 89 426 3 23 19 49 42 73 38 38 42 40 67 30z m127 -230 c49 -98 113
-233 141 -299 27 -66 69 -160 93 -210 24 -49 65 -139 90 -199 45 -103 47 -113
43 -177 -4 -49 -2 -69 7 -73 8 -3 16 6 20 21 10 43 27 12 74 -137 24 -74 54
-149 67 -166 l23 -31 -24 -35 c-20 -30 -34 -38 -92 -52 -37 -10 -115 -33 -173
-51 -58 -19 -150 -44 -205 -55 -90 -19 -408 -109 -461 -130 -18 -7 -21 -5 -17
10 4 15 0 18 -18 16 -13 -1 -35 -8 -47 -15 -13 -7 -26 -10 -29 -7 -3 3 2 8 11
12 20 8 21 24 1 24 -7 0 -19 -8 -24 -17 -6 -10 -11 -13 -11 -7 0 6 7 17 15 24
16 13 21 50 6 50 -5 0 -11 -10 -14 -22 -4 -12 -9 -19 -12 -16 -4 4 5 44 19 90
14 46 29 101 34 123 6 22 21 78 35 125 21 70 51 208 80 370 3 14 27 131 55
260 28 129 65 303 82 385 51 245 106 403 131 378 5 -5 50 -90 100 -189z m-366
16 c-8 -48 0 -51 20 -7 l15 32 -6 -35 c-5 -33 -4 -34 11 -16 8 11 15 26 15 33
0 7 4 13 9 13 20 0 20 -66 0 -153 -12 -51 -27 -117 -34 -147 -21 -90 -42 -196
-70 -350 -26 -145 -93 -433 -166 -716 -22 -83 -39 -161 -39 -173 0 -12 -7 -37
-15 -57 -13 -32 -16 -34 -36 -23 -46 24 -256 246 -458 484 -56 66 -121 143
-144 170 -66 77 -104 137 -109 173 -4 28 1 37 30 63 34 30 34 30 49 10 8 -12
20 -21 28 -21 20 0 38 37 31 64 -4 18 0 26 20 34 21 10 30 8 62 -13 34 -23 38
-24 50 -8 6 9 12 25 12 35 0 20 5 21 35 9 28 -12 55 5 55 34 0 14 9 30 20 37
24 15 27 60 5 78 -12 10 -5 19 48 57 34 25 98 78 142 118 159 143 273 231 293
227 6 -2 17 9 22 23 11 29 27 33 33 8 2 -14 8 -9 20 17 15 31 16 32 12 8 -6
-29 12 -40 20 -13 3 8 7 22 10 30 9 31 17 14 10 -25z m-617 -483 c2 -10 -5
-25 -15 -32 -10 -7 -18 -24 -18 -37 0 -24 -18 -28 -70 -17 -16 3 -21 -2 -23
-28 -4 -38 -11 -40 -42 -15 l-22 18 63 55 c35 29 70 60 78 67 18 17 45 11 49
-11z m-268 -190 c0 -8 -3 -17 -7 -20 -9 -9 -34 13 -27 24 8 14 34 11 34 -4z
m-98 -296 c3 -11 145 -166 223 -245 152 -155 399 -446 433 -511 23 -44 18
-150 -13 -258 -14 -51 -30 -108 -35 -127 -5 -19 -14 -54 -20 -77 -10 -40 -32
-73 -49 -73 -13 0 -165 317 -177 368 -4 15 -27 70 -52 122 -66 138 -133 321
-126 342 3 11 0 20 -10 24 -16 6 -84 140 -106 209 -7 22 -16 45 -20 50 -5 6
-15 33 -23 60 -8 28 -22 67 -30 88 -9 20 -12 37 -7 37 4 0 10 -4 12 -9z m888
-646 c-7 -9 -15 -13 -19 -10 -3 3 1 10 9 15 21 14 24 12 10 -5z m614 -20 c-4
-8 -15 -15 -25 -15 -12 0 -16 5 -13 15 4 8 15 15 25 15 12 0 16 -5 13 -15z
m-214 -77 c6 -21 8 -48 5 -58 -3 -11 -45 -59 -93 -108 -69 -70 -103 -96 -164
-126 -81 -39 -148 -56 -148 -38 0 6 12 10 28 10 32 -1 108 31 175 74 57 36
187 185 187 213 0 11 -7 33 -15 49 -19 36 -19 52 0 36 8 -7 20 -30 25 -52z
m-1006 -43 c36 -72 74 -169 76 -191 0 -1 -15 -7 -32 -14 -18 -8 -40 -20 -50
-27 -35 -31 -97 -21 -208 34 -58 28 -118 55 -135 58 -28 6 -84 31 -238 106
-63 30 -84 45 -76 54 5 4 74 13 149 20 30 3 96 9 145 15 50 5 122 12 160 15
39 3 84 9 100 14 57 17 60 15 109 -84z m910 9 c9 -8 16 -17 16 -18 0 -1 -21
-2 -47 -2 -45 1 -49 -1 -65 -34 -17 -32 -18 -33 -18 -10 0 34 25 68 53 73 40
8 45 7 61 -9z m-1586 -14 c10 -10 49 -34 87 -53 39 -19 99 -48 134 -66 35 -17
73 -31 83 -31 10 0 55 -19 101 -42 166 -85 221 -93 299 -42 44 28 63 30 72 8
11 -28 7 -32 -47 -57 -47 -23 -54 -30 -66 -71 -7 -25 -11 -58 -8 -74 2 -15 12
-65 20 -112 9 -47 20 -132 26 -190 19 -188 33 -253 59 -288 27 -38 101 -88
212 -144 41 -21 120 -67 175 -103 55 -36 106 -69 113 -73 17 -11 7 -32 -23
-54 -23 -17 -24 -17 -57 15 -28 28 -215 146 -298 187 -14 7 -48 30 -77 52 -62
47 -111 58 -149 33 -15 -10 -91 -32 -168 -51 -177 -41 -318 -79 -374 -101 -37
-14 -45 -14 -53 -2 -7 12 -10 12 -22 -1 -12 -12 -13 -28 -7 -75 5 -33 13 -103
20 -155 11 -91 39 -223 56 -264 6 -17 4 -18 -22 -12 -16 4 -33 11 -38 16 -13
13 -35 113 -61 287 -16 107 -32 177 -46 205 -28 54 -165 243 -240 328 -31 36
-68 84 -83 108 -15 23 -34 51 -44 61 -9 10 -28 30 -41 44 l-24 27 23 25 23 25
17 -38 c10 -20 37 -60 61 -88 24 -29 64 -78 89 -110 25 -32 74 -92 110 -134
36 -41 78 -94 94 -118 58 -85 115 -99 239 -59 40 13 113 36 162 51 226 70 281
91 309 119 27 27 28 32 24 92 -5 54 -3 63 10 58 10 -4 13 -1 10 8 -3 8 -12 13
-21 13 -11 -1 -17 13 -22 55 -3 31 -10 72 -15 91 -5 19 -11 101 -13 181 -6
163 -13 189 -72 233 -40 31 -230 122 -321 155 -34 12 -95 38 -135 57 -48 24
-94 38 -131 42 -66 5 -73 16 -25 37 43 19 56 18 75 -5z m21 -71 c47 -20 50
-23 44 -50 -7 -36 12 -39 21 -4 7 29 26 24 26 -6 0 -10 5 -19 10 -19 6 0 10 7
10 15 0 18 -1 19 190 -67 238 -107 260 -130 260 -268 0 -108 14 -235 42 -377
30 -153 28 -155 -122 -208 -36 -13 -77 -26 -92 -29 -14 -3 -33 -8 -41 -11 -13
-6 -38 44 -50 100 -4 19 -4 19 -12 1 -7 -16 -3 -34 22 -102 4 -11 -26 -24
-164 -68 -117 -37 -137 -35 -187 17 -90 95 -278 319 -352 422 -36 50 -52 129
-31 154 8 9 21 30 29 46 21 43 95 183 150 284 25 47 58 109 73 136 26 49 28
50 75 53 33 2 65 -4 99 -19z m1375 -13 c4 -16 18 -29 40 -37 34 -12 40 -29 10
-29 -20 0 -74 54 -74 74 0 25 17 19 24 -8z m-186 -38 c-6 -18 -28 -21 -28 -4
0 9 7 16 16 16 9 0 14 -5 12 -12z m82 -12 c0 -8 -4 -18 -10 -21 -5 -3 -10 3
-10 14 0 12 5 21 10 21 6 0 10 -6 10 -14z m-560 -211 c-16 -20 -5 -32 14 -16
11 9 15 9 19 -1 4 -9 12 -6 27 12 22 25 22 20 3 -27 -3 -7 0 -13 5 -13 6 0 14
9 17 21 5 15 10 18 18 10 8 -8 8 -14 -1 -23 -7 -7 -12 -21 -12 -32 1 -20 1
-20 14 -3 13 17 15 17 24 1 5 -9 7 -26 4 -37 -4 -16 -1 -19 11 -14 11 4 17 -2
22 -21 3 -15 20 -44 38 -66 l33 -39 57 10 c31 5 60 7 65 4 12 -7 28 -68 37
-138 7 -55 -6 -115 -32 -145 -9 -10 -10 -18 -4 -22 14 -9 50 41 57 83 4 20 9
41 13 46 3 6 6 15 7 21 2 13 -29 149 -40 174 -5 13 35 44 85 68 16 7 99 -258
99 -315 0 -14 6 -23 15 -23 8 0 15 6 15 13 -1 28 -41 171 -73 256 -31 81 -33
92 -18 100 9 5 13 13 9 17 -14 13 12 31 38 26 29 -5 57 -55 105 -184 16 -44
43 -108 59 -142 17 -33 30 -67 30 -74 0 -14 -35 -99 -80 -197 -15 -33 -35 -78
-45 -100 -10 -22 -23 -53 -31 -70 -7 -16 -20 -48 -27 -69 -22 -65 -36 -66
-116 -13 -39 26 -131 79 -203 118 -227 121 -236 131 -254 303 -18 166 -44 354
-55 397 -11 45 -2 99 16 93 7 -3 15 2 18 10 4 9 12 16 18 16 8 0 8 -4 -1 -15z
m-1189 -412 c14 -16 43 -53 65 -83 21 -30 61 -83 89 -117 94 -116 199 -262
228 -319 16 -31 41 -151 52 -244 4 -30 13 -84 21 -119 8 -35 13 -66 11 -67 -2
-2 -30 15 -61 37 -43 31 -56 46 -53 60 5 20 -7 26 -18 9 -4 -6 -18 -2 -36 11
-30 21 -30 21 -10 36 29 20 26 35 -3 22 -32 -15 -64 -6 -102 28 -17 16 -51 46
-77 69 -25 22 -51 54 -58 70 -44 113 -96 263 -134 386 -24 77 -24 77 -5 141
32 115 47 128 91 80z m1241 -400 c34 -20 92 -52 128 -72 86 -49 262 -164 277
-182 9 -11 -12 -38 -112 -139 -253 -258 -351 -350 -383 -356 -20 -4 -60 4
-123 25 -52 17 -128 38 -169 47 -41 9 -104 23 -140 31 -36 8 -78 17 -93 20
-17 3 -33 16 -41 32 -16 31 -38 130 -31 140 2 5 23 11 46 14 39 5 57 13 48 21
-2 2 -28 0 -56 -3 -29 -4 -53 -5 -53 -2 0 3 -7 62 -15 131 -19 159 -20 149 13
161 55 21 329 98 392 109 36 7 97 23 135 35 96 30 104 30 177 -12z"/>
<path d="M8538 6656 c-10 -7 -18 -22 -18 -32 1 -18 1 -18 14 -1 18 23 32 22
39 -4 4 -16 11 -20 28 -16 20 5 21 3 16 -35 -4 -27 -2 -37 5 -30 5 5 12 27 15
48 8 65 -51 107 -99 70z"/>
<path d="M8577 6223 c-4 -3 -7 -10 -7 -14 0 -10 77 -49 83 -42 8 7 24 -27 31
-70 5 -29 3 -39 -9 -43 -21 -9 -19 -27 3 -20 16 5 21 -4 35 -66 9 -40 19 -94
23 -119 3 -25 10 -52 14 -60 16 -25 21 -2 12 50 -7 36 -6 51 2 53 6 0 16 2 21
2 25 3 17 20 -9 21 -27 0 -30 4 -43 55 -8 30 -18 69 -23 85 -4 17 -12 58 -15
93 -4 35 -12 65 -19 67 -29 9 -94 14 -99 8z"/>
<path d="M8538 5948 c9 -9 15 -9 24 0 9 9 7 12 -12 12 -19 0 -21 -3 -12 -12z"/>
<path d="M8615 5870 c-8 -13 25 -13 45 0 12 8 9 10 -12 10 -15 0 -30 -4 -33
-10z"/>
<path d="M8986 5734 c-9 -22 3 -32 14 -14 12 19 12 30 1 30 -5 0 -12 -7 -15
-16z"/>
<path d="M9060 5670 c0 -5 5 -10 10 -10 6 0 10 5 10 10 0 6 -4 10 -10 10 -5 0
-10 -4 -10 -10z"/>
<path d="M8303 5660 c-44 -18 -39 -130 7 -130 26 0 53 29 46 53 -2 10 0 27 7
37 8 14 8 22 -2 34 -15 18 -26 19 -58 6z m38 -34 c-6 -7 -9 -25 -8 -42 2 -23
-2 -30 -20 -32 -20 -3 -23 1 -23 31 0 25 6 39 23 50 25 16 44 12 28 -7z"/>
<path d="M8557 5656 c-6 -15 1 -26 15 -26 4 0 8 9 8 20 0 23 -15 27 -23 6z"/>
<path d="M8795 5630 c-3 -5 1 -10 10 -10 9 0 13 5 10 10 -3 6 -8 10 -10 10 -2
0 -7 -4 -10 -10z"/>
<path d="M8002 6410 c-51 -33 -95 -60 -98 -60 -11 0 -124 -83 -124 -91 0 -15
14 -10 51 17 19 14 88 57 154 96 143 85 131 76 119 88 -6 6 -44 -13 -102 -50z"/>
<path d="M7956 6289 c-26 -38 -30 -40 -62 -35 -43 9 -44 -7 -2 -25 30 -12 32
-12 65 27 47 54 57 74 40 74 -8 0 -27 -18 -41 -41z"/>
<path d="M8000 6189 c0 -5 16 -17 35 -25 41 -17 45 -17 45 -4 0 5 -16 17 -36
25 -43 18 -44 18 -44 4z"/>
<path d="M7836 6139 c-74 -104 -76 -108 -65 -114 12 -8 10 -11 43 42 17 29 31
41 41 37 8 -4 15 -1 15 5 0 6 -5 11 -11 11 -7 0 -5 10 5 26 34 51 9 45 -28 -7z"/>
<path d="M7480 5972 c-16 -17 -15 -39 2 -59 13 -16 43 -1 58 28 22 40 -29 66
-60 31z m43 -8 c9 -10 -4 -34 -19 -34 -8 0 -14 6 -14 13 0 22 19 35 33 21z"/>
<path d="M7815 5780 c0 -25 5 -40 13 -40 7 0 12 15 12 40 0 25 -5 40 -12 40
-8 0 -13 -15 -13 -40z"/>
<path d="M7900 5786 c0 -17 14 -29 23 -20 8 8 -3 34 -14 34 -5 0 -9 -6 -9 -14z"/>
<path d="M7530 5280 c0 -5 5 -10 11 -10 5 0 7 5 4 10 -3 6 -8 10 -11 10 -2 0
-4 -4 -4 -10z"/>
<path d="M7656 5194 c-32 -34 -56 -68 -54 -75 2 -6 26 13 52 44 26 31 56 59
66 62 17 5 18 37 1 34 -3 -1 -32 -30 -65 -65z"/>
<path d="M7670 5101 c0 -15 149 -120 156 -110 7 11 -3 20 -88 79 -60 42 -68
46 -68 31z"/>
<path d="M7428 5053 c-64 -7 -42 -19 29 -17 37 2 69 8 71 13 4 11 -23 12 -100
4z"/>
<path d="M7265 5011 c-3 -5 4 -13 16 -16 28 -9 36 1 10 14 -12 7 -22 7 -26 2z"/>
<path d="M7520 4974 c0 -8 5 -12 10 -9 6 3 10 10 10 16 0 5 -4 9 -10 9 -5 0
-10 -7 -10 -16z"/>
<path d="M7392 3928 c5 -15 28 -18 29 -3 0 6 -7 12 -17 13 -10 3 -15 -1 -12
-10z"/>
<path d="M6835 4800 c3 -5 11 -10 16 -10 6 0 7 5 4 10 -3 6 -11 10 -16 10 -6
0 -7 -4 -4 -10z"/>
<path d="M7180 4800 c0 -5 5 -10 11 -10 5 0 7 5 4 10 -3 6 -8 10 -11 10 -2 0
-4 -4 -4 -10z"/>
<path d="M6873 4683 c-7 -15 -13 -33 -13 -40 0 -7 -11 -36 -25 -65 -41 -89
-125 -289 -125 -299 0 -41 37 32 100 196 35 92 74 166 89 173 7 3 22 0 32 -6
29 -19 39 -14 39 17 0 24 -6 31 -31 40 -46 16 -53 14 -66 -16z"/>
<path d="M7144 4604 c-9 -24 -104 -258 -137 -339 -32 -76 -42 -115 -29 -115 5
0 21 30 34 68 61 163 138 342 148 342 3 0 16 -9 28 -20 29 -27 39 -25 47 10 8
36 2 46 -27 53 -13 2 -31 8 -40 12 -13 5 -20 2 -24 -11z"/>
<path d="M6605 4532 c-3 -3 -5 -14 -5 -24 0 -17 2 -18 30 -3 28 14 31 14 36 0
4 -9 1 -28 -5 -42 -6 -14 -10 -28 -7 -31 3 -2 13 12 22 32 17 34 17 37 0 55
-16 17 -58 25 -71 13z"/>
<path d="M6605 4380 c3 -5 8 -10 11 -10 2 0 4 5 4 10 0 6 -5 10 -11 10 -5 0
-7 -4 -4 -10z"/>
<path d="M7410 4171 c0 -5 5 -13 10 -16 6 -3 10 -2 10 4 0 5 -4 13 -10 16 -5
3 -10 2 -10 -4z"/>
<path d="M7806 4474 c-16 -41 -5 -95 36 -173 44 -84 53 -93 87 -84 26 7 27 19
2 26 -11 2 -36 30 -57 62 -32 48 -39 67 -42 121 -4 62 -14 80 -26 48z"/>
<path d="M7879 3963 c-23 -47 -23 -49 5 -24 14 14 26 30 26 38 0 22 -16 15
-31 -14z"/>
<path d="M8080 3913 c0 -5 5 -15 10 -23 8 -12 10 -11 10 8 0 12 -4 22 -10 22
-5 0 -10 -3 -10 -7z"/>
<path d="M6497 4032 c-45 -47 -32 -68 23 -36 62 37 107 -5 157 -149 22 -66 32
-83 32 -62 1 40 -34 149 -62 194 -52 85 -103 102 -150 53z"/>
<path d="M6526 3908 c7 -33 28 -57 51 -58 24 0 23 20 -1 35 -14 9 -28 25 -31
36 -11 33 -27 22 -19 -13z"/>
<path d="M6540 3732 c0 -47 76 -100 125 -88 38 10 30 21 -14 21 -41 0 -91 34
-91 61 0 7 -4 16 -10 19 -5 3 -10 -2 -10 -13z"/>
<path d="M7375 3779 c-6 -9 34 -39 52 -39 16 0 17 13 -11 -110 -27 -116 -36
-148 -60 -202 -18 -42 -20 -58 -8 -58 12 0 49 95 68 175 9 39 27 103 39 143
14 46 18 75 12 79 -19 11 -87 21 -92 12z"/>
<path d="M7558 3690 c-26 -27 -48 -59 -48 -70 0 -28 17 -25 24 5 13 50 115 84
157 52 40 -30 51 -104 24 -156 -20 -40 -69 -78 -115 -92 -51 -15 -51 -33 0
-53 43 -17 45 -21 30 -60 -7 -20 -6 -26 4 -26 8 0 17 11 20 24 3 13 9 31 12
39 4 11 -5 21 -27 32 l-32 17 46 27 c74 43 100 87 99 167 -2 71 -64 144 -123
144 -14 0 -41 -19 -71 -50z"/>
<path d="M7150 3600 c0 -5 7 -10 16 -10 8 0 12 5 9 10 -3 6 -10 10 -16 10 -5
0 -9 -4 -9 -10z"/>
<path d="M7630 3566 c0 -27 -48 -71 -99 -91 -59 -23 -94 -54 -82 -73 6 -10 12
-7 24 11 9 14 38 33 67 43 56 20 110 72 110 104 0 11 -4 20 -10 20 -5 0 -10
-6 -10 -14z"/>
<path d="M7910 3548 c0 -8 7 -23 15 -34 15 -18 15 -18 13 10 -3 29 -28 50 -28
24z"/>
<path d="M7972 3549 c2 -7 10 -15 17 -17 8 -3 12 1 9 9 -2 7 -10 15 -17 17 -8
3 -12 -1 -9 -9z"/>
<path d="M7151 3334 c0 -11 3 -14 6 -6 3 7 2 16 -1 19 -3 4 -6 -2 -5 -13z"/>
<path d="M4257 4133 c-3 -5 -11 -37 -18 -72 -9 -50 -19 -71 -47 -98 -27 -27
-40 -33 -59 -28 -46 11 -19 -24 30 -39 25 -8 67 -103 67 -153 0 -68 17 -50 22
22 4 72 18 93 71 111 37 12 39 27 5 34 -54 13 -82 105 -59 187 9 29 -1 55 -12
36z m3 -197 c0 -5 7 -18 17 -28 9 -10 11 -18 5 -18 -6 0 -19 -14 -28 -32 l-17
-32 -18 36 c-10 20 -23 40 -29 43 -7 4 0 20 17 40 25 29 29 31 41 17 6 -9 12
-20 12 -26z"/>
<path d="M5460 2173 c-577 -10 -1078 -41 -1205 -75 -35 -9 -38 -11 -22 -23
127 -93 2513 -121 3392 -39 160 14 230 27 240 43 40 65 -1249 115 -2405 94z"/>
</g>
</svg>
